<svg xmlns="http://www.w3.org/2000/svg" xmlns:xlink="http://www.w3.org/1999/xlink" width="210" zoomAndPan="magnify" viewBox="0 0 157.5 222.749994" height="297" preserveAspectRatio="xMidYMid meet" version="1.0"><path fill="#5271ff" d="M 76.917969 63.917969 C 76.859375 63.917969 76.804688 63.917969 76.746094 63.917969 C 76.289062 63.945312 75.820312 64.003906 75.363281 64.046875 C 64.695312 65.117188 55.382812 69.238281 48.167969 77.195312 C 36.03125 90.570312 32.792969 106.144531 37.941406 123.386719 C 39.921875 130.019531 43.433594 135.910156 48.496094 140.65625 C 49.851562 141.941406 51.261719 143.109375 52.714844 144.179688 C 56.480469 146.976562 59.804688 148.714844 64.910156 150.441406 C 69.472656 151.925781 74.351562 152.679688 79.527344 152.75 C 86.628906 152.609375 92.578125 151.167969 97.796875 148.988281 C 102.84375 146.847656 107.492188 143.78125 111.671875 139.703125 C 119.53125 132.058594 123.59375 122.574219 124.394531 111.664062 C 124.464844 110.59375 124.039062 109.996094 123.222656 109.867188 C 122.410156 109.738281 121.855469 110.210938 121.585938 111.25 C 120.074219 117.011719 117.175781 122.003906 112.671875 125.898438 C 102.859375 134.382812 91.421875 136.992188 78.886719 134.28125 C 67.789062 131.886719 59.816406 125.425781 55.640625 114.714844 C 52.175781 105.832031 52.203125 96.804688 55.3125 87.820312 C 57.765625 80.703125 61.957031 74.839844 68.289062 70.632812 C 71.042969 68.808594 74.035156 67.539062 77.230469 66.710938 C 78.203125 66.46875 78.601562 65.886719 78.472656 65.074219 C 78.34375 64.359375 77.789062 63.933594 76.917969 63.917969 Z M 64.980469 69.308594 C 62.242188 71.574219 59.789062 74.070312 57.75 76.964844 C 52.375 84.609375 50.019531 93.140625 50.304688 102.4375 C 50.546875 110.195312 52.773438 117.3125 57.292969 123.660156 C 62.34375 130.746094 69.34375 135.011719 77.714844 136.894531 C 90.835938 139.84375 102.902344 137.378906 113.5 128.890625 C 115.265625 127.480469 116.707031 125.667969 118.289062 124.027344 C 118.488281 123.816406 118.660156 123.585938 118.859375 123.359375 C 118.933594 123.402344 119.015625 123.445312 119.089844 123.488281 C 118.320312 125.113281 117.621094 126.796875 116.75 128.363281 C 112 136.863281 105.253906 142.855469 96.726562 146.363281 C 91.792969 148.34375 86.816406 149.570312 82.464844 149.785156 C 70.886719 150.769531 60.289062 147.246094 50.917969 139.0625 C 46.742188 135.425781 43.902344 130.730469 41.761719 125.640625 C 35.117188 109.769531 38.570312 91.183594 50.476562 78.777344 C 54.484375 74.597656 59.234375 71.492188 64.640625 69.40625 C 64.753906 69.367188 64.867188 69.335938 64.980469 69.308594 Z M 64.980469 69.308594 " fill-opacity="1" fill-rule="nonzero"/><path fill="#004aad" d="M 100.414062 22.214844 C 100.359375 22.242188 100.25 22.871094 100.085938 24.050781 C 99.632812 27.519531 99.277344 29.398438 98.742188 30.976562 C 97.921875 33.429688 96.699219 34.898438 94.644531 35.910156 C 92.984375 36.734375 90.734375 37.242188 86.320312 37.816406 C 84.550781 38.0625 84.425781 38.089844 84.425781 38.339844 C 84.425781 38.585938 84.550781 38.625 85.8125 38.777344 C 92.421875 39.613281 94.917969 40.394531 96.726562 42.207031 C 98.496094 43.972656 99.277344 46.402344 100.085938 52.613281 C 100.320312 54.382812 100.347656 54.503906 100.59375 54.503906 C 100.839844 54.503906 100.882812 54.382812 101.074219 52.847656 C 101.898438 46.429688 102.679688 43.988281 104.472656 42.207031 C 106.285156 40.394531 108.78125 39.613281 115.390625 38.777344 C 116.652344 38.613281 116.773438 38.570312 116.773438 38.339844 C 116.773438 38.089844 116.652344 38.0625 114.882812 37.832031 C 111.453125 37.390625 109.617188 37.023438 108.082031 36.527344 C 105.542969 35.707031 104.0625 34.5 103.046875 32.457031 C 102.183594 30.714844 101.691406 28.546875 101.074219 23.832031 C 100.9375 22.800781 100.839844 22.269531 100.785156 22.226562 C 100.675781 22.144531 100.539062 22.144531 100.414062 22.214844 Z M 100.414062 22.214844 " fill-opacity="1" fill-rule="nonzero"/><path fill="#5e17eb" d="M 26.804688 165.199219 C 26.746094 165.226562 26.628906 165.894531 26.457031 167.140625 C 25.976562 170.800781 25.601562 172.785156 25.035156 174.453125 C 24.167969 177.042969 22.878906 178.59375 20.707031 179.664062 C 18.957031 180.53125 16.582031 181.066406 11.917969 181.675781 C 10.050781 181.9375 9.921875 181.964844 9.921875 182.226562 C 9.921875 182.488281 10.050781 182.53125 11.382812 182.691406 C 18.363281 183.574219 20.996094 184.398438 22.90625 186.308594 C 24.777344 188.175781 25.601562 190.738281 26.457031 197.300781 C 26.703125 199.167969 26.730469 199.296875 26.992188 199.296875 C 27.25 199.296875 27.296875 199.167969 27.496094 197.546875 C 28.367188 190.769531 29.191406 188.191406 31.089844 186.308594 C 33 184.398438 35.636719 183.574219 42.613281 182.691406 C 43.945312 182.515625 44.078125 182.472656 44.078125 182.226562 C 44.078125 181.964844 43.945312 181.9375 42.078125 181.691406 C 38.457031 181.226562 36.519531 180.835938 34.898438 180.316406 C 32.21875 179.445312 30.652344 178.171875 29.582031 176.015625 C 28.671875 174.175781 28.148438 171.886719 27.496094 166.90625 C 27.351562 165.820312 27.25 165.257812 27.195312 165.214844 C 27.078125 165.125 26.933594 165.125 26.804688 165.199219 Z M 26.804688 165.199219 " fill-opacity="1" fill-rule="nonzero"/><path fill="#5271ff" d="M 129.785156 138.277344 C 129.726562 138.304688 129.613281 138.976562 129.4375 140.226562 C 128.957031 143.914062 128.578125 145.910156 128.007812 147.582031 C 127.136719 150.191406 125.839844 151.75 123.65625 152.828125 C 121.890625 153.703125 119.503906 154.238281 114.8125 154.851562 C 112.933594 155.113281 112.804688 155.144531 112.804688 155.40625 C 112.804688 155.667969 112.933594 155.710938 114.273438 155.871094 C 121.292969 156.761719 123.945312 157.589844 125.867188 159.511719 C 127.746094 161.390625 128.578125 163.96875 129.4375 170.566406 C 129.683594 172.445312 129.714844 172.578125 129.976562 172.578125 C 130.238281 172.578125 130.28125 172.445312 130.484375 170.816406 C 131.359375 164 132.191406 161.40625 134.097656 159.511719 C 136.019531 157.589844 138.671875 156.761719 145.691406 155.871094 C 147.03125 155.695312 147.164062 155.652344 147.164062 155.40625 C 147.164062 155.144531 147.03125 155.113281 145.152344 154.867188 C 141.511719 154.402344 139.558594 154.007812 137.929688 153.484375 C 135.234375 152.609375 133.660156 151.328125 132.582031 149.15625 C 131.664062 147.308594 131.140625 145.003906 130.484375 139.996094 C 130.339844 138.902344 130.238281 138.335938 130.179688 138.289062 C 130.0625 138.203125 129.917969 138.203125 129.785156 138.277344 Z M 129.785156 138.277344 " fill-opacity="1" fill-rule="nonzero"/></svg>