<svg class="svg-icon" style="width: 1em; height: 1em;vertical-align: middle;fill: currentColor;overflow: hidden;" viewBox="0 0 1024 1024" version="1.1" xmlns="http://www.w3.org/2000/svg"><path d="M952.687083 182.978166c0-23.883481-15.009277-57.727333-86.652423-83.322163C817.614539 82.371008 753.686453 72.844861 686.05835 72.844861c-67.66216 0-131.590246 9.560204-179.97631 26.811142-71.615171 25.624022-86.657288 59.438682-86.657288 83.322163 0 3.549195-0.498687 7.132447 0.189745 10.647586-0.688432 2.213686-1.837846 4.485755-1.837846 6.727416l0 104.375289c0 3.611227 0.341783 7.193263 0.997375 10.680426-0.655592 2.17598-0.997375 4.418858-0.997375 6.723767l0 51.222502c-31.139992-3.14538-52.562876-4.732666-80.42856-4.732666-67.757032 0-131.243597 9.560204-179.572495 26.806276C86.160425 420.995617 71.308052 454.810277 71.308052 478.693758c0 3.639202 2.33775 7.222454 3.021316 10.709618-0.683567 2.208821 0.931694 4.484538 0.931694 6.694575l0 104.374073c0 3.611227 0.341783 7.160422 1.031432 10.647586-0.689648 2.306126-1.031432 4.485755-1.031432 6.694575l0 104.436104c0 3.611227 0.341783 7.160422 1.031432 10.681642-0.689648 2.241661-1.031432 4.479673-1.031432 6.660519l0 104.375289c0 23.883481 13.170215 57.698141 84.75741 83.291755 48.324033 17.280129 111.315559 26.806276 179.072591 26.806276s131.119533-9.557771 179.415591-26.806276c71.615171-25.594831 86.096568-59.409491 86.096568-83.291755l0-68.626695c31.135127 3.207412 53.493354 4.792265 81.360254 4.792265 67.62932 0 128.814624-9.557771 177.234746-26.811142 71.615171-25.594831 83.915723-59.437466 83.915723-83.322163l0-104.341232c0-2.303693-0.341783-4.579411-1.026566-6.755391 0.684783-3.426348 1.026566-7.008384 1.026566-10.619611l0-104.402048c0-2.303693-0.341783-4.579411-1.026566-6.756607 0.684783-3.39594 1.026566-6.88432 1.026566-10.618394l0-104.374073c0-2.332884-0.341783-4.609818-1.026566-6.756607 0.684783-3.426348 1.026566-6.941486 1.026566-10.647586l0-104.375289c0-2.303693 2.460597-4.54657 1.77703-6.727416C949.574543 190.205485 952.687083 186.622233 952.687083 182.978166L952.687083 182.978166zM686.05835 733.86241c-28.212332 0-55.770288-1.742974-81.734877-5.169321 0.246911-2.113948 0.279752-4.261953 0.279752-6.442799l0-68.659535c31.135127 3.208628 53.584578 4.794698 81.360254 4.794698 67.567288 0 136.321695-9.560204 184.803848-26.840333 15.475124-5.573137 14.072717-11.733751 45.212709-18.428327l0 56.885645c0 6.818639-16.472499 23.913889-60.720674 39.72958C811.761651 725.300797 748.61322 733.86241 686.05835 733.86241L686.05835 733.86241zM855.258145 587.986592c-43.654615 15.569996-104.403264 24.131609-166.806096 24.131609-28.084619 0-56.790773-1.745406-82.918348-5.231353 0.218936-2.085973-0.931694-4.233978-0.931694-6.44888l0-68.653454c31.135127 3.206196 53.30361 4.792265 81.360254 4.792265 67.538096 0 136.259663-9.557771 184.803848-26.809925 15.475124-5.540296 14.072717-11.739833 45.212709-18.401568l0 56.918486C915.978819 555.103626 899.50632 572.170901 855.258145 587.986592L855.258145 587.986592zM855.258145 466.208327c-43.654615 15.565131-104.403264 24.130392-166.806096 24.130392-27.960555 0-56.605894-1.775814-82.823476-5.230137 0.218936-2.085973-0.251776-4.238844-0.251776-6.447664 0-23.850641-8.095765-57.699357-79.740128-83.322163-15.882588-5.605977-45.587333-10.462707-45.587333-14.419366l0-11.332369c0 6.784582 17.840849 12.952495 33.224749 18.434408 48.324033 17.280129 108.636026 26.806276 176.393058 26.806276 67.724192 0 134.606697-9.558988 182.93073-26.806276 15.445932-5.511105 12.239737-11.711858 43.378513-18.434408l0 56.919702C915.978819 433.324144 899.50632 450.386554 855.258145 466.208327L855.258145 466.208327zM853.856955 344.425196c-44.495086 15.602836-106.678982 24.164449-170.602202 24.164449-63.988901 0-125.237454-8.561613-169.73254-24.164449-45.273525-15.784067-58.752683-32.879317-58.752683-39.696739l0-56.891727c0 6.728632 25.874582 12.890463 41.658649 18.435625 49.573184 17.31297 115.116531 26.839117 184.241913 26.839117s139.467075-9.558988 189.03661-26.839117c15.849748-5.573137 14.415717-11.769024 46.272116-18.435625l0 56.891727C915.978819 311.545879 899.131697 328.641129 853.856955 344.425196L853.856955 344.425196zM850.492639 222.707746c-43.592583 15.569996-101.975507 24.103633-164.43429 24.103633-62.492839 0-120.908603-8.533637-164.439155-24.103633-44.27615-15.844882-55.984359-32.910941-55.984359-39.695523 0-6.851479 11.706993-23.946729 55.984359-39.734445 43.563392-15.569996 101.946316-24.098768 164.468346-24.098768 62.463647 0 120.846571 8.528772 164.439155 24.098768 44.248175 15.816907 55.955168 32.910941 55.955168 39.734445C906.447807 189.796805 894.740814 206.862863 850.492639 222.707746L850.492639 222.707746zM573.464448 787.049253l0 56.919702c0 6.851479-19.152032 23.945513-63.428182 39.700388-43.620559 15.569996-105.742422 24.098768-168.173229 24.098768-62.459998 0-128.377969-8.529988-171.970552-24.098768-44.248175-15.754875-63.490214-32.848909-63.490214-39.700388l0-56.85767c31.138776 6.727416 30.668064 12.889247 46.081155 18.401568 48.35809 17.280129 115.117747 26.777085 182.807882 26.777085 67.695001 0 140.493642-9.526147 188.817675-26.777085C539.615731 799.972557 542.324456 793.804644 573.464448 787.049253L573.464448 787.049253zM510.03505 761.919054c-43.592583 15.569996-105.709582 24.131609-168.173229 24.131609-62.492839 0-128.412025-8.561613-171.970552-24.131609-44.248175-15.816907-63.490214-32.850125-63.490214-39.668764l0-56.918486c31.138776 6.72255 30.668064 12.889247 46.081155 18.400352 48.452962 17.314186 115.240594 26.840333 182.807882 26.840333 67.600128 0 140.369578-9.558988 188.817675-26.840333 15.445932-5.511105 18.216689-11.677801 49.355464-18.434408l0 56.952542C573.464448 729.070145 554.3112 746.103363 510.03505 761.919054L510.03505 761.919054zM510.03505 640.173628c-43.530551 15.566347-105.64755 24.098768-168.173229 24.098768-62.554871 0-128.474057-8.532421-171.942577-24.098768-44.27615-15.848531-63.518189-32.917022-63.518189-39.701605l0-56.919702c31.138776 6.785799 30.730095 12.985335 46.081155 18.4636 48.482153 17.280129 115.274651 26.811142 182.807882 26.811142 67.572153 0 140.369578-9.557771 188.817675-26.811142 15.383901-5.478264 18.216689-11.706993 49.355464-18.4636l0 56.919702C573.464448 607.256606 554.3112 624.323881 510.03505 640.173628L510.03505 640.173628zM502.622851 518.390498c-43.525686 15.571212-101.941451 24.102417-164.46713 24.102417-62.554871 0-120.937795-8.532421-164.435506-24.102417-44.248175-15.815691-55.955168-32.912157-55.955168-39.696739 0-6.789448 11.706993-23.883481 55.955168-39.700388 43.530551-15.569996 101.942667-24.131609 164.435506-24.131609s120.908603 8.561613 164.46713 24.131609c44.282232 15.849748 55.989224 32.910941 55.989224 39.700388C558.612075 485.47834 546.871026 502.57359 502.622851 518.390498L502.622851 518.390498zM502.622851 518.390498"  /></svg>